<?xml version="1.0" encoding="UTF-8"?> <svg xmlns="http://www.w3.org/2000/svg" xmlns:xlink="http://www.w3.org/1999/xlink" xml:space="preserve" width="250px" height="106px" version="1.1" style="shape-rendering:geometricPrecision; text-rendering:geometricPrecision; image-rendering:optimizeQuality; fill-rule:evenodd; clip-rule:evenodd" viewBox="0 0 826 350"> <defs> <style type="text/css"> .fil1 {fill:#404042} .fil0 {fill:#F58634} </style> </defs> <g id="Camada_x0020_1"> <metadata id="CorelCorpID_0Corel-Layer"></metadata> <g id="_1489342489296"> <path class="fil0" d="M714 11c46,18 80,54 100,99 10,24 14,52 11,85 -12,106 -117,176 -219,149l0 -70c55,25 118,0 144,-54 20,-45 9,-94 -28,-127 -51,-46 -128,-31 -164,25 -1,1 -1,2 -2,3l0 -93 2 -1c45,-29 105,-35 156,-16z"></path> <path class="fil1" d="M33 288l1 0 6 23 -14 0 7 -23zm100 -127c-2,-10 -7,-19 -15,-26 -8,-8 -17,-12 -29,-14 -3,0 -5,-1 -7,0 -9,0 -17,2 -23,5 -6,4 -12,8 -16,14 2,1 4,3 7,4 3,1 5,2 8,3 17,7 35,15 53,23 18,7 35,15 52,23 -1,9 -4,18 -9,25 -4,8 -10,14 -17,20 -4,3 -8,6 -13,9 -5,3 -10,6 -15,7 -6,2 -12,4 -19,4 -6,1 -14,1 -21,-1 -10,-1 -19,-4 -27,-9 -8,-4 -15,-10 -20,-15 -7,-7 -12,-14 -15,-23l25 -24c2,10 7,19 15,27 8,7 18,12 29,14 7,1 13,0 18,-1 5,-2 10,-4 14,-6 2,-1 5,-3 7,-4 2,-2 4,-4 6,-6 -21,-9 -41,-18 -61,-27 -20,-8 -40,-17 -60,-26 7,-25 19,-43 38,-55 8,-4 16,-8 25,-11 10,-2 21,-3 33,-1 10,2 19,5 27,10 8,4 15,9 20,15 7,7 12,15 16,23l-26 23zm507 -68c8,-1 15,-1 22,0 7,1 13,2 19,5 5,2 11,5 15,8 5,3 10,7 13,10 8,8 14,17 19,28 5,11 7,25 5,40 -1,10 -4,20 -8,28 -5,8 -10,15 -16,21 -6,6 -13,11 -21,16 -8,4 -17,6 -28,8 -7,0 -14,0 -21,-1 -7,-1 -13,-2 -18,-5 -6,-2 -11,-5 -16,-8 -5,-3 -9,-6 -12,-10 -4,-4 -7,-8 -11,-12 -3,-5 -5,-10 -8,-16 -2,-5 -4,-11 -5,-18 -1,-7 -1,-14 0,-22 1,-11 4,-20 8,-28 4,-7 9,-14 15,-20 5,-5 10,-9 15,-12 5,-3 11,-6 18,-9 2,0 5,-1 7,-1 3,-1 5,-2 8,-2zm-23 44c-4,3 -7,7 -10,11 -3,4 -5,10 -6,16 -1,2 -1,4 -1,6 -1,2 -1,5 -1,7 1,12 6,23 13,31 7,9 17,15 28,17 2,0 4,1 6,1 2,0 5,0 7,0 7,0 13,-2 19,-4 5,-3 10,-6 15,-11 4,-4 8,-9 11,-15 2,-6 4,-13 4,-20l0 -4c0,-8 -2,-15 -6,-21 -3,-6 -7,-11 -11,-15 -5,-4 -10,-7 -17,-10 -6,-2 -13,-3 -20,-2 -7,1 -13,2 -18,4 -5,2 -9,5 -13,9zm-379 -43c8,-1 15,-1 22,0 7,1 13,2 19,5 5,2 11,5 15,8 5,3 10,7 13,10 8,8 14,17 19,28 5,11 7,25 5,40 -1,10 -4,20 -8,28 -5,8 -10,15 -16,21 -6,6 -13,11 -21,15 -8,5 -17,7 -27,9 -8,0 -15,0 -22,-1 -6,-1 -13,-2 -18,-5 -6,-2 -11,-5 -16,-8 -4,-3 -9,-6 -12,-10 -4,-4 -7,-8 -10,-12 -4,-5 -6,-10 -9,-16 -2,-5 -4,-12 -5,-18 -1,-7 -1,-14 0,-22 1,-11 4,-20 8,-28 5,-7 10,-14 15,-20 5,-5 10,-9 15,-12 5,-3 11,-6 18,-9 2,0 5,-1 7,-2 3,0 5,-1 8,-1zm-23 43c-4,4 -7,8 -10,12 -3,4 -5,10 -6,16 -1,2 -1,4 -1,6 -1,2 -1,5 0,7 0,12 5,23 12,31 8,9 17,14 28,17 2,0 4,1 6,1 3,0 5,0 7,0 7,0 13,-2 19,-4 5,-3 11,-7 15,-11 4,-4 8,-9 11,-15 2,-6 4,-13 4,-20l0 -4c0,-8 -2,-15 -6,-21 -3,-6 -7,-11 -11,-15 -5,-4 -10,-7 -17,-10 -6,-2 -13,-3 -20,-2 -7,1 -13,2 -18,4 -5,2 -9,5 -13,8zm149 -121l0 96c5,-2 9,-4 12,-7 4,-2 9,-4 14,-6 13,-4 27,-5 39,-3 13,2 24,7 34,13 9,7 17,15 24,26 6,10 10,21 11,33 0,7 1,15 1,22 0,8 -1,15 -1,23 0,4 0,9 0,13l-31 33c0,-7 -1,-15 0,-22 0,-7 0,-14 0,-21 1,-7 1,-14 1,-21 0,-7 0,-14 -1,-21 -1,-7 -3,-14 -6,-21 -4,-7 -8,-12 -14,-17 -5,-4 -12,-7 -19,-9 -7,-1 -15,-2 -23,0 -5,1 -10,3 -15,6 -4,2 -9,6 -12,10 -4,4 -7,8 -9,14 -3,5 -4,11 -5,17 0,7 -1,14 0,21 0,7 0,14 0,21 0,4 1,7 1,10l-31 33 0 -210 30 -33zm168 1l0 81c0,13 0,27 0,41 -1,14 -1,27 0,39 1,15 7,27 16,36 10,9 22,14 38,15l-27 27c-2,-1 -4,-1 -6,-2 -9,-4 -17,-9 -24,-15 -6,-6 -12,-13 -18,-22 -5,-9 -8,-18 -9,-29 0,-7 -1,-14 0,-21 0,-7 0,-14 0,-21l0 -99 30 -30zm52 290c1,0 1,0 1,0l3 0c0,0 0,-1 0,-1 0,-6 -5,-8 -10,-8 -8,0 -10,5 -10,9 0,2 1,6 5,8l8 4c4,2 4,4 4,6 0,3 -3,5 -6,5 -5,0 -8,-3 -8,-7 0,0 -1,0 -1,0l-2 0c0,0 -1,0 -1,0 0,4 3,11 12,11 6,0 10,-4 10,-9 0,-3 -1,-6 -6,-9 -3,-2 -5,-3 -8,-5 -2,-1 -3,-3 -3,-4 0,-2 1,-5 6,-5 5,0 6,2 6,5zm-35 23c-4,0 -7,-3 -7,-9l0 -10c0,-7 3,-9 7,-9 4,0 7,2 7,9l0 10c0,6 -3,9 -7,9zm0 -32c-8,0 -11,4 -11,13l0 10c0,8 3,13 11,13 8,0 11,-5 11,-13l0 -10c0,-9 -3,-13 -11,-13zm-20 -13c0,-1 0,-1 -1,-1l-3 0c0,0 0,0 0,1l0 16c-1,-2 -5,-3 -8,-3 -7,0 -11,5 -11,12 0,1 0,13 0,13 0,6 4,11 11,11 2,0 6,0 8,-4l0 3c0,1 0,1 0,1l3 0c0,0 1,0 1,-1l0 -48zm-4 38c0,5 -3,7 -8,7 -4,0 -7,-3 -7,-7l0 -13c0,-5 2,-8 7,-8 4,0 8,1 8,8l0 13zm-40 11c3,0 6,0 9,-4l0 3c0,1 0,1 0,1l3 0c0,0 1,0 1,-1l0 -23c0,-9 -6,-12 -11,-12 -7,0 -11,3 -11,10 0,0 0,0 0,0l4 0c0,0 0,0 0,0 0,-4 2,-6 7,-6 4,0 6,3 7,7l0 3 -11 3c-6,1 -8,5 -8,10 0,6 4,9 10,9l0 0zm0 -4c-3,0 -6,-2 -6,-5 0,-2 1,-5 5,-6l10 -2 0 5c0,4 -4,8 -9,8l0 0zm-18 -45c0,-1 0,-1 0,-1l-4 0c0,0 -1,0 -1,1l0 4c0,1 1,1 1,1l4 0c0,0 0,0 0,-1l0 -4zm-11 64c7,0 11,-4 11,-12l0 -38c0,-1 -1,-1 -1,-1l-2 0c0,0 -1,0 -1,1l0 38c0,7 -4,8 -7,8 -1,0 -1,1 -1,1l0 2c0,0 0,1 1,1zm-5 -26c0,0 -4,0 -4,0 0,0 0,0 0,0 0,4 -3,7 -8,7 -4,0 -7,-3 -7,-7 0,0 0,-2 0,-4l16 -3c2,0 3,-1 3,-3l0 -6c0,-5 -5,-9 -11,-9 -7,0 -12,5 -12,11l0 14c0,6 5,11 11,11 7,0 12,-4 12,-11 0,0 0,0 0,0zm-4 -11l-15 3 0 -6c0,-4 2,-7 8,-7 4,0 7,2 7,5l0 5zm-51 21c0,1 1,1 1,1l2 0c0,0 1,0 1,-1l0 -23c0,-4 2,-8 7,-8 6,0 8,3 8,8l0 23c0,1 0,1 0,1l3 0c0,0 1,0 1,-1l0 -23c0,-8 -5,-12 -11,-12 -4,0 -6,1 -8,3l0 -2c0,-1 -1,-1 -1,-1l-3 0c0,0 0,0 0,1l0 34zm-22 1c2,0 6,0 8,-4l0 3c0,1 1,1 1,1l3 0c0,0 0,0 0,-1l0 -23c0,-9 -5,-12 -11,-12 -6,0 -11,3 -11,10 0,0 1,0 1,0l3 0c0,0 0,0 0,0 0,-4 3,-6 7,-6 4,0 7,3 7,7l0 3 -10 3c-7,1 -9,5 -9,10 0,6 4,9 11,9l0 0zm0 -4c-4,0 -7,-2 -7,-5 0,-2 1,-5 5,-6l10 -2 0 5c0,4 -3,8 -8,8l0 0zm-16 0c-5,0 -7,-2 -7,-7l0 -38c0,-1 -1,-1 -1,-1l-3 0c0,0 0,0 0,1l0 38c0,4 1,11 11,11 1,0 1,-1 1,-1l0 -2c0,0 0,-1 -1,-1zm-40 0c2,4 6,4 8,4 6,0 11,-5 11,-12l0 -12c0,-7 -4,-12 -11,-12 -3,0 -7,1 -8,4l0 -3c0,-1 -1,-1 -1,-1l-2 0c0,0 -1,0 -1,1l0 49c0,1 1,1 1,1l2 0c0,0 1,0 1,-1l0 -18zm15 -8c0,5 -3,8 -7,8 -5,0 -8,-4 -8,-8l0 -12c0,-5 3,-8 7,-8 5,0 8,3 8,8l0 12zm-46 -15c0,0 0,0 0,0l3 0c1,0 1,-1 1,-1 -1,-6 -5,-8 -11,-8 -8,0 -10,5 -10,9 0,2 1,6 5,8l8 4c4,2 4,4 4,6 0,3 -3,5 -6,5 -5,0 -8,-3 -8,-7 0,0 -1,0 -1,0l-2 0c0,0 -1,0 -1,0 0,4 3,11 12,11 6,0 10,-4 10,-9 0,-3 -1,-6 -6,-9 -3,-2 -5,-3 -8,-5 -2,-1 -3,-3 -3,-4 0,-2 1,-5 6,-5 5,0 6,2 7,5zm-26 16c0,0 -3,0 -3,0 0,0 -1,0 -1,0 0,4 -2,7 -7,7 -5,0 -7,-3 -7,-7 0,0 0,-2 0,-4l16 -3c2,0 3,-1 3,-3l0 -6c0,-5 -5,-9 -11,-9 -8,0 -12,5 -12,11l0 14c0,6 4,11 11,11 7,0 12,-4 12,-11 0,0 -1,0 -1,0zm-4 -11l-14 3 0 -6c0,-4 2,-7 7,-7 4,0 7,2 7,5l0 5zm-27 22c1,0 1,-1 1,-1l0 -3c0,0 0,0 -1,0l0 0c-5,0 -7,-2 -7,-7l0 -20 8 0c0,0 0,-1 0,-1l0 -3c0,0 0,0 0,0l-8 0 0 -13c0,-1 -1,-1 -1,-1l-2 0c0,0 -1,0 -1,1l0 13 -3 0c-1,0 -1,0 -1,0l0 3c0,0 0,1 1,1l3 0 0 20c0,8 4,11 11,11l0 0zm-43 -1c0,1 1,1 1,1l2 0c0,0 1,0 1,-1l0 -23c0,-4 2,-8 7,-8 6,0 8,3 8,8l0 23c0,1 0,1 0,1l3 0c0,0 1,0 1,-1l0 -23c0,-8 -5,-12 -11,-12 -3,0 -6,1 -8,3l0 -2c0,-1 -1,-1 -1,-1l-2 0c0,0 -1,0 -1,1l0 34zm-10 -10c0,0 -3,0 -3,0 0,0 -1,0 -1,0 0,4 -3,7 -7,7 -5,0 -7,-3 -8,-7 0,0 0,-2 0,-4l17 -3c2,0 2,-1 2,-3l0 -6c0,-5 -4,-9 -11,-9 -7,0 -12,5 -12,11l0 14c0,6 5,11 12,11 7,0 11,-4 11,-11 0,0 0,0 0,0zm-4 -11l-15 3 0 -6c0,-4 2,-7 8,-7 4,0 7,2 7,5l0 5zm-33 21c0,1 0,1 0,1l3 0c0,0 1,0 1,-1l0 -34c0,-1 -1,-1 -1,-1l-3 0c0,0 0,0 0,1l0 34zm4 -48c0,-1 0,-1 0,-1l-4 0c0,0 -1,0 -1,1l0 4c0,1 1,1 1,1l4 0c0,0 0,0 0,-1l0 -4zm-34 45c3,4 6,4 9,4 6,0 10,-5 10,-11l0 -13c0,-7 -4,-12 -11,-12 -3,0 -6,1 -8,3l0 -16c0,-1 0,-1 0,-1l-3 0c0,0 -1,0 -1,1l0 48c0,1 1,1 1,1l3 0c0,0 0,0 0,-1l0 -3zm15 -7c0,4 -3,7 -7,7 -5,0 -8,-3 -8,-7l0 -13c0,-6 4,-8 8,-8 4,0 7,3 7,8 0,0 0,13 0,13l0 0zm-55 -25c-3,0 -6,1 -7,3l0 -2c0,-1 -1,-1 -1,-1l-3 0c0,0 0,0 0,1l0 34c0,1 1,1 1,1l2 0c0,0 1,0 1,-1l0 -23c0,-4 1,-8 7,-8 4,0 6,2 6,5l0 26c0,1 1,1 1,1l3 0c0,0 0,0 0,-1l0 -26c0,-3 3,-5 6,-5 5,0 7,3 7,8l0 23c0,1 0,1 0,1l3 0c0,0 1,0 1,-1l0 -23c0,-10 -6,-12 -11,-12 -3,0 -6,1 -8,3 -1,-3 -5,-3 -8,-3zm-40 -14c0,0 -1,0 -1,1l-14 48c0,1 1,1 1,1l3 0c0,0 1,-1 1,-1l5 -18 16 0 5 18c0,0 0,1 1,1l3 0c0,0 1,0 1,-1l-14 -48c0,-1 -1,-1 -1,-1l-6 0z"></path> </g> </g> </svg> 